<?xml version="1.0" standalone="no"?>
<!DOCTYPE svg PUBLIC "-//W3C//DTD SVG 20010904//EN"
 "http://www.w3.org/TR/2001/REC-SVG-20010904/DTD/svg10.dtd">
<svg version="1.0" xmlns="http://www.w3.org/2000/svg"
 width="4402.000000pt" height="631.000000pt" viewBox="0 0 4402.000000 631.000000"
 preserveAspectRatio="xMidYMid meet">

<g transform="translate(0.000000,631.000000) scale(0.100000,-0.100000)"
fill="#000000" stroke="none">
<path d="M4590 6304 c-725 -68 -1334 -380 -1965 -1009 -623 -620 -1199 -1489
-1945 -2935 -173 -334 -680 -1353 -680 -1366 0 -29 52 69 265 496 454 913 682
1351 930 1785 831 1460 1587 2316 2410 2728 401 201 835 301 1236 284 453 -19
1009 -250 1684 -700 568 -378 1106 -806 2200 -1746 764 -657 998 -857 1230
-1051 1436 -1197 2337 -1732 3090 -1831 142 -19 422 -6 574 26 531 111 1045
432 1641 1025 275 274 468 490 1005 1125 646 765 949 1086 1265 1342 641 519
1195 590 1779 228 344 -213 673 -560 1256 -1320 610 -797 796 -1023 1090
-1324 567 -580 1089 -883 1705 -988 132 -22 553 -25 700 -5 437 62 912 203
1460 434 539 228 1012 465 2175 1088 1134 607 1681 884 2235 1130 1048 465
1913 720 2700 794 470 45 916 24 1475 -70 2201 -370 5546 -1854 9573 -4248
286 -170 363 -211 322 -172 -18 16 -351 215 -814 486 -2944 1720 -5578 2969
-7540 3574 -496 153 -863 249 -1266 330 -499 100 -870 140 -1290 139 -656 -1
-1261 -112 -2058 -379 -874 -292 -1628 -646 -3402 -1596 -736 -394 -864 -461
-1288 -671 -980 -487 -1621 -719 -2247 -813 -172 -26 -575 -26 -730 -1 -359
60 -679 187 -996 395 -257 169 -442 325 -714 604 -274 280 -479 528 -1000
1209 -533 696 -792 992 -1080 1232 -603 504 -1179 551 -1799 147 -200 -130
-341 -246 -570 -470 -278 -271 -437 -448 -1001 -1115 -722 -853 -1056 -1201
-1455 -1516 -411 -325 -791 -512 -1186 -585 -155 -29 -491 -27 -642 4 -249 50
-469 127 -740 258 -591 284 -1259 753 -2242 1573 -231 193 -383 323 -1300
1111 -1374 1182 -2099 1719 -2780 2060 -293 147 -527 231 -779 281 -104 20
-379 33 -491 23z"/>
</g>
</svg>
